<svg width="148" height="45" viewBox="0 0 148 45" fill="none" xmlns="http://www.w3.org/2000/svg">
<path d="M19.2703 23.0258C17.1432 19.2237 16.4221 15.8993 17.3354 11.5354C16.1697 13.8398 16.015 16.4611 16.4867 18.9338C16.7676 20.4074 17.2723 21.7324 17.8898 23.0889C19.1471 25.8529 20.0785 29.0721 19.3259 32.066C18.8376 34.0099 17.4166 35.5211 15.7146 36.116C13.616 36.8505 11.4979 36.3894 9.91756 35.0164C8.82996 34.0715 8.18251 32.8757 7.81748 31.4832C6.66078 27.0652 7.53056 22.4895 9.22805 18.3058C11.3717 13.0226 15.1017 7.08288 19.3995 3.26428C23.5275 6.83202 27.1734 12.6636 29.302 17.5698C31.2023 21.9547 32.2193 26.7918 31.016 31.4892C29.1653 38.7208 21.3388 41.7282 14.6059 39.3277C18.1556 39.3532 20.792 37.1915 21.5491 33.6929C22.3092 30.1763 21.0098 26.1353 19.2703 23.0258Z" fill="white"/>
<path d="M128.671 24.6692C125.856 25.6126 122.927 24.5566 121.278 22.0269L117.702 16.5453L116.462 17.9123L116.454 20.3414C116.452 20.9813 116.627 21.5176 116.863 22.1786H113.143C113.341 21.5927 113.561 21.0745 113.561 20.4616V11.887C113.561 11.3387 113.346 10.8505 113.14 10.3112L116.846 10.3082C116.658 10.849 116.443 11.3582 116.449 11.869L116.498 16.006L121.581 10.3457L123.424 10.3127L119.63 14.4137L124.111 21.3719C125.135 22.9627 126.475 24.525 128.67 24.6707L128.671 24.6692Z" fill="white"/>
<path d="M98.3419 22.1846L94.5143 22.1771C94.7096 21.6919 94.9695 21.2142 94.971 20.7665L94.983 16.6234L90.0798 16.6414L90.0648 20.3414C90.0618 20.9903 90.209 21.5431 90.5215 22.1786L86.6908 22.1891C86.9372 21.6408 87.146 21.1435 87.1445 20.5937L87.1385 11.8825C87.1385 11.3267 86.9372 10.8279 86.6893 10.3036L90.526 10.3127C90.1789 10.9451 90.0558 11.561 90.0588 12.2685L90.0723 15.3871L94.9575 15.3751L94.9635 11.7322C94.9635 11.2726 94.7186 10.7889 94.5128 10.3142L98.3239 10.3067C98.1226 10.8174 97.9108 11.3026 97.9108 11.8059L97.9063 20.1896C97.9063 20.9152 98.067 21.4951 98.3404 22.1861L98.3419 22.1846Z" fill="white"/>
<path d="M73.7975 22.2011C73.0614 22.2416 72.4395 22.2401 71.6974 22.1725L64.7242 13.5769L64.6566 20.3338C64.6506 20.9813 64.8263 21.5281 65.0787 22.1785L62.8389 22.1891C63.0628 21.6137 63.2851 21.118 63.2866 20.5652L63.3001 11.6466C63.3001 11.1944 62.9591 10.7678 62.6992 10.3382L65.2815 10.3141C65.615 10.3111 65.986 10.5305 66.2114 10.8114L72.426 18.5612L72.447 12.0101C72.4485 11.4468 72.2863 10.9976 72.0474 10.3247L74.2256 10.2901C74.0048 10.918 73.805 11.4017 73.805 12.0116L73.799 22.2026L73.7975 22.2011Z" fill="white"/>
<path d="M38.9972 10.9796C38.5045 9.71324 37.5686 8.98918 36.2722 8.68123C37.0323 8.51148 37.8631 8.50697 38.7028 8.57307C40.3853 8.7984 41.6516 9.86196 42.275 11.4573L45.4807 19.6503L49.1446 9.78835C50.1796 7.00177 51.775 4.76348 54.9852 5.29226C52.505 5.53862 51.1966 8.21555 50.4079 10.3291L45.9855 22.186L43.3551 22.192L38.9957 10.9766L38.9972 10.9796Z" fill="white"/>
<path d="M104.783 13.0527L102.586 18.2443C104.409 18.6124 105.916 19.706 106.768 21.2893C105.27 20.4556 103.711 19.407 102.081 19.6474C101.489 20.382 101.337 21.3419 101.563 22.1936L99.2252 22.1996C99.6669 21.5687 100.024 21.0474 100.305 20.385L104.089 11.4514C104.07 11.0127 103.663 10.6146 103.319 10.3202L105.969 10.3052C106.289 10.3037 106.676 10.5425 106.822 10.8685L111.159 20.5427C111.85 22.0855 112.527 23.2001 114.132 23.5561C111.684 24.0579 109.524 23.6027 108.444 21.1992L104.783 13.0542V13.0527Z" fill="white"/>
<path d="M52.3009 18.1737C54.081 18.6409 55.5952 19.6474 56.5582 21.3208C55.2227 20.6163 54.0735 19.7525 52.5247 19.6158C52.3415 19.5993 51.8548 19.5738 51.7406 19.7C51.3876 20.0935 51.0105 21.447 51.2614 22.1801L49.0021 22.1666C49.3656 21.5942 49.7141 21.1616 49.956 20.5817L53.7475 11.4889C53.9113 11.0983 53.3329 10.6311 53.0415 10.3322L55.801 10.2917C56.0234 10.2886 56.3448 10.559 56.453 10.7979L61.3532 21.5702C61.8549 22.6743 62.7683 23.2812 63.8393 23.5366C61.3968 24.0729 59.3898 23.6042 58.2166 21.3704L54.4656 13.0647L52.2994 18.1722L52.3009 18.1737Z" fill="white"/>
<path d="M83.1141 21.8917C80.667 23.0379 77.7542 22.5001 75.6556 20.8326C75.9426 19.8682 76.222 19.1502 76.7192 18.1392C76.946 18.5928 77.0647 18.8707 77.233 19.2748C77.945 20.9964 79.8648 21.8015 81.6059 21.1045C82.0836 20.9137 82.4456 20.3895 82.5132 19.9674C82.8467 17.8838 79.8197 17.5789 77.9585 16.5859C76.6471 15.8859 75.9651 14.603 76.1213 13.1609C76.2655 11.8329 77.1894 10.6762 78.6135 10.2796C80.7556 9.68177 83.09 10.1369 84.8101 11.5806L83.6459 13.6761C83.1471 12.6231 82.7145 11.8464 81.9784 11.513C80.996 11.0668 79.9174 10.9752 79.0897 11.537C78.3326 12.0507 78.4663 13.1669 79.1558 13.7287C80.5588 14.8719 82.4922 14.9064 84.0319 16.2389C84.9528 17.0366 85.2788 18.1647 85.0549 19.3965C84.8852 20.3309 84.2392 21.3644 83.1156 21.8902L83.1141 21.8917Z" fill="white"/>
<path d="M130.958 22.1665L127.084 22.1891C127.39 21.5491 127.566 20.9858 127.564 20.3294L127.561 11.5385L126.07 11.555C125.276 11.564 124.656 11.8509 123.952 12.3692L124.127 10.3036H133.958L134.152 12.3361C133.585 11.9816 133.083 11.594 132.465 11.5805L130.497 11.5355V20.7289C130.497 21.1901 130.745 21.6453 130.958 22.1681V22.1665Z" fill="white"/>
<path d="M139.143 22.1756H135.292C135.536 21.6183 135.741 21.1511 135.742 20.5938L135.747 12.0132C135.747 11.4078 135.55 10.894 135.296 10.3127H139.148C138.813 10.9722 138.663 11.567 138.664 12.2836L138.681 20.5878C138.681 21.1316 138.879 21.5867 139.145 22.1771L139.143 22.1756Z" fill="white"/>
<path d="M41.8659 26.3519V29.8479H41.4425V26.3519H41.8659ZM45.4869 26.3519V29.8479H45.0772L43.1722 27.103H43.138V29.8479H42.7147V26.3519H43.1244L45.0363 29.1036H45.0704V26.3519H45.4869ZM46.1429 26.7274V26.3519H48.7649V26.7274H47.6656V29.8479H47.2422V26.7274H46.1429ZM49.4183 29.8479V26.3519H51.5282V26.7274H49.8416V27.9087H51.4189V28.2842H49.8416V29.4723H51.5555V29.8479H49.4183ZM54.6811 27.4444C54.6436 27.3294 54.594 27.2264 54.5326 27.1354C54.4723 27.0432 54.4 26.9647 54.3158 26.8998C54.2327 26.835 54.1383 26.7855 54.0324 26.7513C53.9266 26.7172 53.8105 26.7001 53.6842 26.7001C53.4771 26.7001 53.2887 26.7536 53.1192 26.8606C52.9496 26.9675 52.8147 27.1252 52.7146 27.3334C52.6144 27.5417 52.5644 27.7972 52.5644 28.0999C52.5644 28.4026 52.615 28.6581 52.7163 28.8663C52.8176 29.0746 52.9547 29.2322 53.1277 29.3392C53.3007 29.4462 53.4953 29.4997 53.7115 29.4997C53.9118 29.4997 54.0882 29.457 54.2407 29.3716C54.3943 29.2851 54.5138 29.1634 54.5992 29.0063C54.6857 28.8481 54.7289 28.6621 54.7289 28.4481L54.8586 28.4754H53.8071V28.0999H55.1386V28.4754C55.1386 28.7634 55.0771 29.0137 54.9542 29.2265C54.8325 29.4393 54.664 29.6044 54.4489 29.7216C54.235 29.8377 53.9892 29.8957 53.7115 29.8957C53.402 29.8957 53.13 29.8229 52.8955 29.6772C52.6622 29.5315 52.4802 29.3244 52.3493 29.0558C52.2195 28.7873 52.1547 28.4686 52.1547 28.0999C52.1547 27.8233 52.1917 27.5747 52.2656 27.3539C52.3407 27.132 52.4466 26.9431 52.5831 26.7872C52.7197 26.6313 52.8813 26.5118 53.0679 26.4287C53.2546 26.3456 53.46 26.3041 53.6842 26.3041C53.8686 26.3041 54.0404 26.3319 54.1997 26.3877C54.3602 26.4423 54.503 26.5203 54.6282 26.6216C54.7545 26.7217 54.8598 26.8418 54.944 26.9818C55.0282 27.1206 55.0862 27.2748 55.1181 27.4444H54.6811ZM55.8991 29.8479H55.4553L56.739 26.3519H57.176L58.4597 29.8479H58.0158L56.9711 26.9049H56.9438L55.8991 29.8479ZM56.063 28.4823H57.8519V28.8578H56.063V28.4823ZM58.4046 26.7274V26.3519H61.0266V26.7274H59.9273V29.8479H59.5039V26.7274H58.4046ZM61.68 29.8479V26.3519H63.7899V26.7274H62.1034V27.9087H63.6807V28.2842H62.1034V29.4723H63.8172V29.8479H61.68ZM65.6318 29.8479H64.553V26.3519H65.6796C66.0188 26.3519 66.309 26.4219 66.5502 26.5618C66.7915 26.7007 66.9764 26.9004 67.105 27.161C67.2336 27.4205 67.2979 27.7312 67.2979 28.0931C67.2979 28.4572 67.233 28.7708 67.1033 29.0336C66.9736 29.2954 66.7847 29.4968 66.5366 29.6379C66.2885 29.7779 65.9869 29.8479 65.6318 29.8479ZM64.9763 29.4723H65.6045C65.8936 29.4723 66.1331 29.4166 66.3232 29.3051C66.5132 29.1935 66.6549 29.0348 66.7482 28.8288C66.8416 28.6228 66.8882 28.3776 66.8882 28.0931C66.8882 27.8108 66.8421 27.5679 66.7499 27.3641C66.6578 27.1593 66.5201 27.0022 66.3368 26.893C66.1536 26.7826 65.9254 26.7274 65.6523 26.7274H64.9763V29.4723ZM69.36 29.8479V26.3519H71.4699V26.7274H69.7834V27.9087H71.3607V28.2842H69.7834V29.4723H71.4972V29.8479H69.36ZM75.0462 27.4444H74.6229C74.5978 27.3226 74.554 27.2156 74.4914 27.1234C74.43 27.0313 74.3548 26.9539 74.2661 26.8913C74.1785 26.8276 74.0812 26.7798 73.9742 26.7479C73.8672 26.716 73.7557 26.7001 73.6396 26.7001C73.4279 26.7001 73.2362 26.7536 73.0643 26.8606C72.8936 26.9675 72.7576 27.1252 72.6563 27.3334C72.5562 27.5417 72.5061 27.7972 72.5061 28.0999C72.5061 28.4026 72.5562 28.6581 72.6563 28.8663C72.7576 29.0746 72.8936 29.2322 73.0643 29.3392C73.2362 29.4462 73.4279 29.4997 73.6396 29.4997C73.7557 29.4997 73.8672 29.4837 73.9742 29.4519C74.0812 29.42 74.1785 29.3728 74.2661 29.3102C74.3548 29.2465 74.43 29.1685 74.4914 29.0763C74.554 28.983 74.5978 28.876 74.6229 28.7554H75.0462C75.0143 28.9341 74.9563 29.094 74.8721 29.2351C74.7879 29.3762 74.6832 29.4962 74.558 29.5953C74.4328 29.6931 74.2923 29.7677 74.1363 29.8189C73.9816 29.8701 73.816 29.8957 73.6396 29.8957C73.3414 29.8957 73.0763 29.8229 72.8441 29.6772C72.612 29.5315 72.4293 29.3244 72.2961 29.0558C72.163 28.7873 72.0964 28.4686 72.0964 28.0999C72.0964 27.7312 72.163 27.4125 72.2961 27.1439C72.4293 26.8754 72.612 26.6682 72.8441 26.5226C73.0763 26.3769 73.3414 26.3041 73.6396 26.3041C73.816 26.3041 73.9816 26.3297 74.1363 26.3809C74.2923 26.4321 74.4328 26.5072 74.558 26.6062C74.6832 26.7041 74.7879 26.8236 74.8721 26.9647C74.9563 27.1047 75.0143 27.2646 75.0462 27.4444ZM78.6801 28.0999C78.6801 28.4686 78.6135 28.7873 78.4804 29.0558C78.3472 29.3244 78.1646 29.5315 77.9324 29.6772C77.7002 29.8229 77.4351 29.8957 77.1369 29.8957C76.8387 29.8957 76.5736 29.8229 76.3414 29.6772C76.1093 29.5315 75.9266 29.3244 75.7935 29.0558C75.6603 28.7873 75.5937 28.4686 75.5937 28.0999C75.5937 27.7312 75.6603 27.4125 75.7935 27.1439C75.9266 26.8754 76.1093 26.6682 76.3414 26.5226C76.5736 26.3769 76.8387 26.3041 77.1369 26.3041C77.4351 26.3041 77.7002 26.3769 77.9324 26.5226C78.1646 26.6682 78.3472 26.8754 78.4804 27.1439C78.6135 27.4125 78.6801 27.7312 78.6801 28.0999ZM78.2704 28.0999C78.2704 27.7972 78.2197 27.5417 78.1185 27.3334C78.0183 27.1252 77.8823 26.9675 77.7105 26.8606C77.5398 26.7536 77.3486 26.7001 77.1369 26.7001C76.9252 26.7001 76.7335 26.7536 76.5616 26.8606C76.3909 26.9675 76.2549 27.1252 76.1536 27.3334C76.0535 27.5417 76.0034 27.7972 76.0034 28.0999C76.0034 28.4026 76.0535 28.6581 76.1536 28.8663C76.2549 29.0746 76.3909 29.2322 76.5616 29.3392C76.7335 29.4462 76.9252 29.4997 77.1369 29.4997C77.3486 29.4997 77.5398 29.4462 77.7105 29.3392C77.8823 29.2322 78.0183 29.0746 78.1185 28.8663C78.2197 28.6581 78.2704 28.4026 78.2704 28.0999ZM80.8873 29.8479H80.4435L81.7272 26.3519H82.1642L83.4479 29.8479H83.004L81.9593 26.9049H81.932L80.8873 29.8479ZM81.0512 28.4823H82.8402V28.8578H81.0512V28.4823ZM85.0982 28.7554H85.5625L85.9517 29.2675L86.0541 29.4041L86.6345 30.1757H86.1702L85.7878 29.6635L85.6922 29.5338L85.0982 28.7554ZM86.7779 28.0999C86.7779 28.4686 86.7113 28.7873 86.5782 29.0558C86.445 29.3244 86.2624 29.5315 86.0302 29.6772C85.798 29.8229 85.5329 29.8957 85.2347 29.8957C84.9366 29.8957 84.6714 29.8229 84.4392 29.6772C84.2071 29.5315 84.0244 29.3244 83.8913 29.0558C83.7581 28.7873 83.6916 28.4686 83.6916 28.0999C83.6916 27.7312 83.7581 27.4125 83.8913 27.1439C84.0244 26.8754 84.2071 26.6682 84.4392 26.5226C84.6714 26.3769 84.9366 26.3041 85.2347 26.3041C85.5329 26.3041 85.798 26.3769 86.0302 26.5226C86.2624 26.6682 86.445 26.8754 86.5782 27.1439C86.7113 27.4125 86.7779 27.7312 86.7779 28.0999ZM86.3682 28.0999C86.3682 27.7972 86.3176 27.5417 86.2163 27.3334C86.1161 27.1252 85.9801 26.9675 85.8083 26.8606C85.6376 26.7536 85.4464 26.7001 85.2347 26.7001C85.023 26.7001 84.8313 26.7536 84.6594 26.8606C84.4887 26.9675 84.3527 27.1252 84.2515 27.3334C84.1513 27.5417 84.1012 27.7972 84.1012 28.0999C84.1012 28.4026 84.1513 28.6581 84.2515 28.8663C84.3527 29.0746 84.4887 29.2322 84.6594 29.3392C84.8313 29.4462 85.023 29.4997 85.2347 29.4997C85.4464 29.4997 85.6376 29.4462 85.8083 29.3392C85.9801 29.2322 86.1161 29.0746 86.2163 28.8663C86.3176 28.6581 86.3682 28.4026 86.3682 28.0999ZM89.784 26.3519H90.2074V28.6666C90.2074 28.9056 90.151 29.119 90.0384 29.3068C89.9268 29.4934 89.7692 29.6408 89.5655 29.7489C89.3618 29.8559 89.1228 29.9094 88.8485 29.9094C88.5743 29.9094 88.3353 29.8559 88.1316 29.7489C87.9279 29.6408 87.7697 29.4934 87.657 29.3068C87.5455 29.119 87.4897 28.9056 87.4897 28.6666V26.3519H87.9131V28.6325C87.9131 28.8032 87.9506 28.9551 88.0257 29.0883C88.1009 29.2203 88.2078 29.3244 88.3467 29.4007C88.4867 29.4758 88.6539 29.5133 88.8485 29.5133C89.0432 29.5133 89.2104 29.4758 89.3504 29.4007C89.4904 29.3244 89.5974 29.2203 89.6713 29.0883C89.7465 28.9551 89.784 28.8032 89.784 28.6325V26.3519ZM91.1962 29.8479H90.7523L92.036 26.3519H92.473L93.7567 29.8479H93.3129L92.2682 26.9049H92.2409L91.1962 29.8479ZM91.36 28.4823H93.149V28.8578H91.36V28.4823ZM96.5887 29.8957C96.3589 29.8957 96.1608 29.8536 95.9947 29.7694C95.8285 29.6852 95.7005 29.5697 95.6106 29.4228C95.5207 29.276 95.4757 29.1082 95.4757 28.9193C95.4757 28.7736 95.5065 28.6444 95.5679 28.5318C95.6305 28.418 95.7164 28.3127 95.8257 28.216C95.9361 28.1181 96.063 28.0202 96.2064 27.9223L96.7116 27.5468C96.8107 27.4819 96.8897 27.4125 96.9489 27.3385C97.0092 27.2646 97.0394 27.1678 97.0394 27.0483C97.0394 26.9596 97.0001 26.8737 96.9216 26.7906C96.8442 26.7075 96.7424 26.666 96.616 26.666C96.5273 26.666 96.4488 26.6887 96.3805 26.7342C96.3133 26.7786 96.2604 26.8355 96.2217 26.9049C96.1842 26.9732 96.1654 27.0438 96.1654 27.1166C96.1654 27.1986 96.1876 27.2816 96.232 27.3659C96.2775 27.4489 96.335 27.5343 96.4044 27.6219C96.4749 27.7084 96.5478 27.7972 96.6229 27.8882L98.2275 29.8479H97.7427L96.418 28.2501C96.2951 28.1022 96.1836 27.9679 96.0834 27.8472C95.9833 27.7266 95.9036 27.6077 95.8445 27.4905C95.7853 27.3732 95.7557 27.2464 95.7557 27.1098C95.7557 26.9527 95.7904 26.815 95.8598 26.6967C95.9304 26.5772 96.0288 26.4844 96.1551 26.4184C96.2826 26.3513 96.4317 26.3177 96.6024 26.3177C96.7776 26.3177 96.9284 26.3519 97.0548 26.4201C97.1811 26.4873 97.2784 26.5766 97.3467 26.6882C97.4149 26.7985 97.4491 26.9186 97.4491 27.0483C97.4491 27.2156 97.4075 27.3607 97.3245 27.4836C97.2414 27.6065 97.1282 27.7209 96.9848 27.8268L96.2883 28.3457C96.1312 28.4618 96.0248 28.5744 95.9691 28.6837C95.9133 28.7929 95.8854 28.8715 95.8854 28.9193C95.8854 29.0285 95.9139 29.1304 95.9708 29.2248C96.0277 29.3193 96.1079 29.3955 96.2115 29.4536C96.315 29.5116 96.4362 29.5406 96.5751 29.5406C96.7071 29.5406 96.8357 29.5127 96.9609 29.457C97.0861 29.4001 97.1993 29.3181 97.3006 29.2112C97.403 29.1042 97.4838 28.9756 97.543 28.8254C97.6033 28.6752 97.6334 28.5062 97.6334 28.3184H98.0227C98.0227 28.5505 97.9959 28.74 97.9424 28.8868C97.8889 29.0336 97.8286 29.1486 97.7615 29.2317C97.6943 29.3147 97.6403 29.3768 97.5993 29.4177C97.5857 29.4348 97.5731 29.4519 97.5618 29.4689C97.5504 29.486 97.5379 29.5031 97.5242 29.5201C97.4115 29.6465 97.2693 29.7409 97.0974 29.8035C96.9256 29.865 96.756 29.8957 96.5887 29.8957ZM100.223 29.8479H99.7796L101.063 26.3519H101.5L102.784 29.8479H102.34L101.295 26.9049H101.268L100.223 29.8479ZM100.387 28.4823H102.176V28.8578H100.387V28.4823ZM105.554 27.4444C105.517 27.3294 105.467 27.2264 105.406 27.1354C105.345 27.0432 105.273 26.9647 105.189 26.8998C105.106 26.835 105.011 26.7855 104.905 26.7513C104.8 26.7172 104.684 26.7001 104.557 26.7001C104.35 26.7001 104.162 26.7536 103.992 26.8606C103.823 26.9675 103.688 27.1252 103.588 27.3334C103.487 27.5417 103.437 27.7972 103.437 28.0999C103.437 28.4026 103.488 28.6581 103.589 28.8663C103.691 29.0746 103.828 29.2322 104.001 29.3392C104.174 29.4462 104.368 29.4997 104.585 29.4997C104.785 29.4997 104.961 29.457 105.114 29.3716C105.267 29.2851 105.387 29.1634 105.472 29.0063C105.559 28.8481 105.602 28.6621 105.602 28.4481L105.732 28.4754H104.68V28.0999H106.012V28.4754C106.012 28.7634 105.95 29.0137 105.827 29.2265C105.706 29.4393 105.537 29.6044 105.322 29.7216C105.108 29.8377 104.862 29.8957 104.585 29.8957C104.275 29.8957 104.003 29.8229 103.769 29.6772C103.535 29.5315 103.353 29.3244 103.222 29.0558C103.093 28.7873 103.028 28.4686 103.028 28.0999C103.028 27.8233 103.065 27.5747 103.139 27.3539C103.214 27.132 103.32 26.9431 103.456 26.7872C103.593 26.6313 103.754 26.5118 103.941 26.4287C104.128 26.3456 104.333 26.3041 104.557 26.3041C104.742 26.3041 104.913 26.3319 105.073 26.3877C105.233 26.4423 105.376 26.5203 105.501 26.6216C105.628 26.7217 105.733 26.8418 105.817 26.9818C105.901 27.1206 105.959 27.2748 105.991 27.4444H105.554ZM106.737 29.8479V26.3519H107.918C108.191 26.3519 108.415 26.3985 108.591 26.4918C108.766 26.584 108.896 26.7109 108.98 26.8725C109.064 27.0341 109.106 27.2179 109.106 27.4239C109.106 27.6299 109.064 27.8125 108.98 27.9719C108.896 28.1312 108.766 28.2564 108.592 28.3474C108.418 28.4373 108.196 28.4823 107.925 28.4823H106.969V28.0999H107.911C108.098 28.0999 108.248 28.0726 108.362 28.0179C108.477 27.9633 108.56 27.8859 108.611 27.7858C108.663 27.6845 108.69 27.5639 108.69 27.4239C108.69 27.2839 108.663 27.1616 108.611 27.0569C108.559 26.9522 108.475 26.8714 108.36 26.8145C108.245 26.7564 108.093 26.7274 107.904 26.7274H107.16V29.8479H106.737ZM108.382 28.2774L109.243 29.8479H108.751L107.904 28.2774H108.382ZM112.761 28.0999C112.761 28.4686 112.695 28.7873 112.562 29.0558C112.428 29.3244 112.246 29.5315 112.014 29.6772C111.781 29.8229 111.516 29.8957 111.218 29.8957C110.92 29.8957 110.655 29.8229 110.423 29.6772C110.191 29.5315 110.008 29.3244 109.875 29.0558C109.742 28.7873 109.675 28.4686 109.675 28.0999C109.675 27.7312 109.742 27.4125 109.875 27.1439C110.008 26.8754 110.191 26.6682 110.423 26.5226C110.655 26.3769 110.92 26.3041 111.218 26.3041C111.516 26.3041 111.781 26.3769 112.014 26.5226C112.246 26.6682 112.428 26.8754 112.562 27.1439C112.695 27.4125 112.761 27.7312 112.761 28.0999ZM112.352 28.0999C112.352 27.7972 112.301 27.5417 112.2 27.3334C112.1 27.1252 111.964 26.9675 111.792 26.8606C111.621 26.7536 111.43 26.7001 111.218 26.7001C111.006 26.7001 110.815 26.7536 110.643 26.8606C110.472 26.9675 110.336 27.1252 110.235 27.3334C110.135 27.5417 110.085 27.7972 110.085 28.0999C110.085 28.4026 110.135 28.6581 110.235 28.8663C110.336 29.0746 110.472 29.2322 110.643 29.3392C110.815 29.4462 111.006 29.4997 111.218 29.4997C111.43 29.4997 111.621 29.4462 111.792 29.3392C111.964 29.2322 112.1 29.0746 112.2 28.8663C112.301 28.6581 112.352 28.4026 112.352 28.0999Z" fill="white"/>
<path d="M41.4426 35.6163V32.1203H42.6239C42.8982 32.1203 43.1224 32.1698 43.2965 32.2688C43.4717 32.3667 43.6015 32.4993 43.6857 32.6666C43.7699 32.8338 43.812 33.0205 43.812 33.2265C43.812 33.4324 43.7699 33.6197 43.6857 33.7881C43.6026 33.9565 43.474 34.0908 43.2999 34.1909C43.1258 34.29 42.9027 34.3395 42.6307 34.3395H41.784V33.9639H42.6171C42.8049 33.9639 42.9556 33.9315 43.0695 33.8666C43.1833 33.8017 43.2658 33.7141 43.317 33.6037C43.3693 33.4922 43.3955 33.3664 43.3955 33.2265C43.3955 33.0865 43.3693 32.9613 43.317 32.8509C43.2658 32.7405 43.1827 32.654 43.0677 32.5914C42.9528 32.5277 42.8003 32.4958 42.6103 32.4958H41.866V35.6163H41.4426ZM44.494 35.6163V32.1203H45.6753C45.9484 32.1203 46.1726 32.167 46.3478 32.2603C46.5231 32.3525 46.6528 32.4793 46.737 32.6409C46.8213 32.8025 46.8634 32.9863 46.8634 33.1923C46.8634 33.3983 46.8213 33.581 46.737 33.7403C46.6528 33.8996 46.5237 34.0248 46.3495 34.1158C46.1754 34.2057 45.9529 34.2507 45.6821 34.2507H44.7261V33.8683H45.6684C45.8551 33.8683 46.0053 33.841 46.1191 33.7864C46.234 33.7318 46.3171 33.6544 46.3683 33.5542C46.4207 33.4529 46.4468 33.3323 46.4468 33.1923C46.4468 33.0523 46.4207 32.93 46.3683 32.8253C46.316 32.7206 46.2323 32.6398 46.1174 32.5829C46.0024 32.5249 45.8505 32.4958 45.6616 32.4958H44.9173V35.6163H44.494ZM46.1396 34.0458L46.9999 35.6163H46.5083L45.6616 34.0458H46.1396ZM50.5186 33.8683C50.5186 34.237 50.452 34.5557 50.3189 34.8243C50.1857 35.0928 50.0031 35.3 49.7709 35.4456C49.5387 35.5913 49.2736 35.6641 48.9754 35.6641C48.6773 35.6641 48.4121 35.5913 48.1799 35.4456C47.9478 35.3 47.7651 35.0928 47.632 34.8243C47.4988 34.5557 47.4322 34.237 47.4322 33.8683C47.4322 33.4996 47.4988 33.1809 47.632 32.9124C47.7651 32.6438 47.9478 32.4367 48.1799 32.291C48.4121 32.1453 48.6773 32.0725 48.9754 32.0725C49.2736 32.0725 49.5387 32.1453 49.7709 32.291C50.0031 32.4367 50.1857 32.6438 50.3189 32.9124C50.452 33.1809 50.5186 33.4996 50.5186 33.8683ZM50.1089 33.8683C50.1089 33.5656 50.0583 33.3101 49.957 33.1018C49.8568 32.8936 49.7208 32.736 49.549 32.629C49.3783 32.522 49.1871 32.4685 48.9754 32.4685C48.7637 32.4685 48.572 32.522 48.4001 32.629C48.2294 32.736 48.0934 32.8936 47.9922 33.1018C47.892 33.3101 47.8419 33.5656 47.8419 33.8683C47.8419 34.171 47.892 34.4265 47.9922 34.6348C48.0934 34.843 48.2294 35.0007 48.4001 35.1076C48.572 35.2146 48.7637 35.2681 48.9754 35.2681C49.1871 35.2681 49.3783 35.2146 49.549 35.1076C49.7208 35.0007 49.8568 34.843 49.957 34.6348C50.0583 34.4265 50.1089 34.171 50.1089 33.8683ZM52.3093 35.6163H51.2304V32.1203H52.3571C52.6962 32.1203 52.9864 32.1903 53.2277 32.3303C53.4689 32.4691 53.6539 32.6688 53.7825 32.9294C53.9111 33.1889 53.9754 33.4996 53.9754 33.8615C53.9754 34.2257 53.9105 34.5392 53.7808 34.8021C53.651 35.0638 53.4621 35.2652 53.214 35.4064C52.9659 35.5463 52.6643 35.6163 52.3093 35.6163ZM51.6538 35.2408H52.282C52.571 35.2408 52.8106 35.185 53.0006 35.0735C53.1907 34.962 53.3324 34.8032 53.4257 34.5972C53.519 34.3912 53.5657 34.146 53.5657 33.8615C53.5657 33.5793 53.5196 33.3363 53.4274 33.1326C53.3352 32.9277 53.1975 32.7707 53.0143 32.6614C52.8311 32.551 52.6029 32.4958 52.3298 32.4958H51.6538V35.2408ZM56.9798 32.1203H57.4031V34.4351C57.4031 34.674 57.3468 34.8874 57.2341 35.0752C57.1226 35.2618 56.965 35.4092 56.7613 35.5173C56.5576 35.6243 56.3186 35.6778 56.0443 35.6778C55.77 35.6778 55.5311 35.6243 55.3273 35.5173C55.1236 35.4092 54.9655 35.2618 54.8528 35.0752C54.7413 34.8874 54.6855 34.674 54.6855 34.4351V32.1203H55.1088V34.4009C55.1088 34.5716 55.1464 34.7235 55.2215 34.8567C55.2966 34.9887 55.4036 35.0928 55.5424 35.1691C55.6824 35.2442 55.8497 35.2818 56.0443 35.2818C56.2389 35.2818 56.4062 35.2442 56.5462 35.1691C56.6862 35.0928 56.7931 34.9887 56.8671 34.8567C56.9422 34.7235 56.9798 34.5716 56.9798 34.4009V32.1203ZM61.0618 33.2128H60.6384C60.6134 33.091 60.5696 32.9841 60.507 32.8919C60.4455 32.7997 60.3704 32.7223 60.2816 32.6597C60.194 32.596 60.0967 32.5482 59.9897 32.5163C59.8827 32.4845 59.7712 32.4685 59.6551 32.4685C59.4435 32.4685 59.2517 32.522 59.0799 32.629C58.9092 32.736 58.7732 32.8936 58.6719 33.1018C58.5717 33.3101 58.5217 33.5656 58.5217 33.8683C58.5217 34.171 58.5717 34.4265 58.6719 34.6348C58.7732 34.843 58.9092 35.0007 59.0799 35.1076C59.2517 35.2146 59.4435 35.2681 59.6551 35.2681C59.7712 35.2681 59.8827 35.2522 59.9897 35.2203C60.0967 35.1884 60.194 35.1412 60.2816 35.0786C60.3704 35.0149 60.4455 34.9369 60.507 34.8447C60.5696 34.7514 60.6134 34.6445 60.6384 34.5238H61.0618C61.0299 34.7025 60.9718 34.8624 60.8876 35.0035C60.8034 35.1446 60.6987 35.2647 60.5735 35.3637C60.4484 35.4616 60.3078 35.5361 60.1519 35.5873C59.9971 35.6385 59.8315 35.6641 59.6551 35.6641C59.357 35.6641 59.0918 35.5913 58.8597 35.4456C58.6275 35.3 58.4448 35.0928 58.3117 34.8243C58.1785 34.5557 58.112 34.237 58.112 33.8683C58.112 33.4996 58.1785 33.1809 58.3117 32.9124C58.4448 32.6438 58.6275 32.4367 58.8597 32.291C59.0918 32.1453 59.357 32.0725 59.6551 32.0725C59.8315 32.0725 59.9971 32.0981 60.1519 32.1493C60.3078 32.2005 60.4484 32.2756 60.5735 32.3746C60.6987 32.4725 60.8034 32.592 60.8876 32.7331C60.9718 32.8731 61.0299 33.033 61.0618 33.2128ZM61.7459 35.6163V32.1203H63.8558V32.4958H62.1692V33.6771H63.7465V34.0527H62.1692V35.2408H63.8831V35.6163H61.7459ZM64.6188 35.6163V32.1203H65.8001C66.0732 32.1203 66.2974 32.167 66.4727 32.2603C66.6479 32.3525 66.7777 32.4793 66.8619 32.6409C66.9461 32.8025 66.9882 32.9863 66.9882 33.1923C66.9882 33.3983 66.9461 33.581 66.8619 33.7403C66.7777 33.8996 66.6485 34.0248 66.4744 34.1158C66.3003 34.2057 66.0778 34.2507 65.8069 34.2507H64.851V33.8683H65.7933C65.9799 33.8683 66.1301 33.841 66.2439 33.7864C66.3589 33.7318 66.4419 33.6544 66.4932 33.5542C66.5455 33.4529 66.5717 33.3323 66.5717 33.1923C66.5717 33.0523 66.5455 32.93 66.4932 32.8253C66.4408 32.7206 66.3572 32.6398 66.2422 32.5829C66.1273 32.5249 65.9753 32.4958 65.7864 32.4958H65.0422V35.6163H64.6188ZM66.2644 34.0458L67.1248 35.6163H66.6331L65.7864 34.0458H66.2644ZM71.8588 33.2128H71.4355C71.4105 33.091 71.3666 32.9841 71.304 32.8919C71.2426 32.7997 71.1675 32.7223 71.0787 32.6597C70.9911 32.596 70.8938 32.5482 70.7868 32.5163C70.6798 32.4845 70.5683 32.4685 70.4522 32.4685C70.2406 32.4685 70.0488 32.522 69.877 32.629C69.7062 32.736 69.5703 32.8936 69.469 33.1018C69.3688 33.3101 69.3187 33.5656 69.3187 33.8683C69.3187 34.171 69.3688 34.4265 69.469 34.6348C69.5703 34.843 69.7062 35.0007 69.877 35.1076C70.0488 35.2146 70.2406 35.2681 70.4522 35.2681C70.5683 35.2681 70.6798 35.2522 70.7868 35.2203C70.8938 35.1884 70.9911 35.1412 71.0787 35.0786C71.1675 35.0149 71.2426 34.9369 71.304 34.8447C71.3666 34.7514 71.4105 34.6445 71.4355 34.5238H71.8588C71.827 34.7025 71.7689 34.8624 71.6847 35.0035C71.6005 35.1446 71.4958 35.2647 71.3706 35.3637C71.2454 35.4616 71.1049 35.5361 70.949 35.5873C70.7942 35.6385 70.6286 35.6641 70.4522 35.6641C70.1541 35.6641 69.8889 35.5913 69.6567 35.4456C69.4246 35.3 69.2419 35.0928 69.1088 34.8243C68.9756 34.5557 68.9091 34.237 68.9091 33.8683C68.9091 33.4996 68.9756 33.1809 69.1088 32.9124C69.2419 32.6438 69.4246 32.4367 69.6567 32.291C69.8889 32.1453 70.1541 32.0725 70.4522 32.0725C70.6286 32.0725 70.7942 32.0981 70.949 32.1493C71.1049 32.2005 71.2454 32.2756 71.3706 32.3746C71.4958 32.4725 71.6005 32.592 71.6847 32.7331C71.7689 32.8731 71.827 33.033 71.8588 33.2128ZM75.4927 33.8683C75.4927 34.237 75.4261 34.5557 75.293 34.8243C75.1598 35.0928 74.9772 35.3 74.745 35.4456C74.5129 35.5913 74.2477 35.6641 73.9495 35.6641C73.6514 35.6641 73.3862 35.5913 73.1541 35.4456C72.9219 35.3 72.7392 35.0928 72.6061 34.8243C72.4729 34.5557 72.4064 34.237 72.4064 33.8683C72.4064 33.4996 72.4729 33.1809 72.6061 32.9124C72.7392 32.6438 72.9219 32.4367 73.1541 32.291C73.3862 32.1453 73.6514 32.0725 73.9495 32.0725C74.2477 32.0725 74.5129 32.1453 74.745 32.291C74.9772 32.4367 75.1598 32.6438 75.293 32.9124C75.4261 33.1809 75.4927 33.4996 75.4927 33.8683ZM75.083 33.8683C75.083 33.5656 75.0324 33.3101 74.9311 33.1018C74.831 32.8936 74.695 32.736 74.5231 32.629C74.3524 32.522 74.1612 32.4685 73.9495 32.4685C73.7379 32.4685 73.5461 32.522 73.3743 32.629C73.2036 32.736 73.0676 32.8936 72.9663 33.1018C72.8661 33.3101 72.8161 33.5656 72.8161 33.8683C72.8161 34.171 72.8661 34.4265 72.9663 34.6348C73.0676 34.843 73.2036 35.0007 73.3743 35.1076C73.5461 35.2146 73.7379 35.2681 73.9495 35.2681C74.1612 35.2681 74.3524 35.2146 74.5231 35.1076C74.695 35.0007 74.831 34.843 74.9311 34.6348C75.0324 34.4265 75.083 34.171 75.083 33.8683ZM76.2046 32.1203H76.7098L77.8979 35.0223H77.9389L79.127 32.1203H79.6323V35.6163H79.2363V32.9602H79.2021L78.1096 35.6163H77.7272L76.6347 32.9602H76.6006V35.6163H76.2046V32.1203ZM80.4811 35.6163V32.1203H81.6624C81.9367 32.1203 82.1609 32.1698 82.335 32.2688C82.5103 32.3667 82.64 32.4993 82.7242 32.6666C82.8084 32.8338 82.8505 33.0205 82.8505 33.2265C82.8505 33.4324 82.8084 33.6197 82.7242 33.7881C82.6411 33.9565 82.5125 34.0908 82.3384 34.1909C82.1643 34.29 81.9412 34.3395 81.6692 34.3395H80.8226V33.9639H81.6556C81.8434 33.9639 81.9942 33.9315 82.108 33.8666C82.2218 33.8017 82.3043 33.7141 82.3555 33.6037C82.4078 33.4922 82.434 33.3664 82.434 33.2265C82.434 33.0865 82.4078 32.9613 82.3555 32.8509C82.3043 32.7405 82.2212 32.654 82.1063 32.5914C81.9913 32.5277 81.8388 32.4958 81.6488 32.4958H80.9045V35.6163H80.4811ZM83.3191 35.6163H82.8753L84.159 32.1203H84.596L85.8797 35.6163H85.4359L84.3911 32.6734H84.3638L83.3191 35.6163ZM83.483 34.2507H85.272V34.6262H83.483V34.2507ZM89.1965 32.1203V35.6163H88.7868L86.8817 32.8714H86.8476V35.6163H86.4242V32.1203H86.8339L88.7458 34.8721H88.78V32.1203H89.1965ZM89.7432 32.1203H90.228L91.1976 33.7522H91.2385L92.2081 32.1203H92.6929L91.4297 34.1756V35.6163H91.0064V34.1756L89.7432 32.1203ZM94.5925 35.6163V32.1203H95.0158V35.2408H96.6409V35.6163H94.5925ZM97.7198 32.1203V35.6163H97.2964V32.1203H97.7198ZM98.5686 32.1203H99.0739L100.262 35.0223H100.303L101.491 32.1203H101.996V35.6163H101.6V32.9602H101.566L100.474 35.6163H100.091L98.9988 32.9602H98.9646V35.6163H98.5686V32.1203ZM103.269 32.1203V35.6163H102.845V32.1203H103.269ZM103.926 32.4958V32.1203H106.548V32.4958H105.449V35.6163H105.026V32.4958H103.926ZM107.202 35.6163V32.1203H109.311V32.4958H107.625V33.6771H109.202V34.0527H107.625V35.2408H109.339V35.6163H107.202ZM111.153 35.6163H110.075V32.1203H111.201C111.54 32.1203 111.831 32.1903 112.072 32.3303C112.313 32.4691 112.498 32.6688 112.627 32.9294C112.755 33.1889 112.819 33.4996 112.819 33.8615C112.819 34.2257 112.755 34.5392 112.625 34.8021C112.495 35.0638 112.306 35.2652 112.058 35.4064C111.81 35.5463 111.508 35.6163 111.153 35.6163ZM110.498 35.2408H111.126C111.415 35.2408 111.655 35.185 111.845 35.0735C112.035 34.962 112.176 34.8032 112.27 34.5972C112.363 34.3912 112.41 34.146 112.41 33.8615C112.41 33.5793 112.364 33.3363 112.272 33.1326C112.179 32.9277 112.042 32.7707 111.858 32.6614C111.675 32.551 111.447 32.4958 111.174 32.4958H110.498V35.2408Z" fill="white"/>
</svg>
